<svg width="178" height="56" viewBox="0 0 178 56" fill="none" xmlns="http://www.w3.org/2000/svg">
<path d="M53.7698 1.62297C52.5842 1.98526 51.6406 2.32339 51.6406 2.39585C51.6406 2.46831 51.9552 2.68568 52.3423 2.90306C52.8262 3.19289 53.0681 3.55517 53.1649 4.23145C53.4311 5.82551 53.3585 28.2632 53.0923 29.2535C52.9472 29.7365 52.56 30.3645 52.2455 30.606C51.9068 30.8717 51.6406 31.1615 51.6406 31.234C51.6406 31.3064 52.9955 31.3789 54.665 31.3789C56.3345 31.3789 57.6894 31.3306 57.6894 31.2823C57.6894 31.2098 57.3748 30.8476 56.9635 30.4611L56.2377 29.7365V15.3416C56.2377 7.41958 56.1651 0.946699 56.0683 0.970852C55.9473 0.970852 54.9311 1.26068 53.7698 1.62297Z" fill="black"/>
<path d="M171.237 1.62288C169.18 2.25085 168.866 2.49237 169.737 2.75805C170.003 2.85466 170.317 3.1928 170.462 3.53093C170.583 3.84492 170.68 6.30848 170.68 8.96526V13.7958L170.148 13.4093C168.551 12.25 167.462 11.9602 164.994 11.936C162.72 11.936 162.454 11.9843 160.954 12.7331C156.308 15.0034 154.373 21.2589 156.72 26.3792C157.929 29.036 160.349 30.8233 163.422 31.3788C165.89 31.8377 167.97 31.3547 169.785 29.9055L170.68 29.1809V30.1712V31.1373H172.93C174.551 31.1131 175.035 31.0648 174.721 30.8716C173.584 30.2195 173.584 30.1229 173.584 15.0758C173.584 7.29873 173.511 0.946609 173.414 0.970762C173.293 0.994915 172.325 1.28474 171.237 1.62288ZM167.22 13.7716C168.503 14.3996 170.1 16.1627 170.438 17.3462C170.559 17.8292 170.68 20.003 170.68 22.1767C170.68 25.7271 170.632 26.2585 170.172 27.2004C168.817 29.978 165.333 30.9682 162.551 29.3258C161.317 28.6013 160.252 27.297 159.357 25.4131C158.776 24.1331 158.704 23.7466 158.704 21.2347C158.704 18.6504 158.752 18.3606 159.405 17.0564C160.18 15.5589 161.559 14.1581 162.793 13.6025C163.954 13.1195 166.011 13.1919 167.22 13.7716Z" fill="black"/>
<path d="M161.97 22.2251V26.5967L162.526 26.2585C162.817 26.0653 164.389 25.0509 166.035 24.0124C167.68 22.998 168.987 22.1043 168.938 22.0802C168.503 21.742 162.236 17.8535 162.115 17.8535C162.043 17.8535 161.97 19.834 161.97 22.2251Z" fill="black"/>
<path d="M0.347168 1.42968C0.347168 1.55045 0.516533 1.67121 0.710093 1.67121C0.903654 1.67121 1.26658 1.96104 1.48433 2.32333C1.87145 2.92714 1.91985 3.98985 2.04082 14.3513L2.1618 25.703L2.86345 27.2246C4.0974 29.8814 5.98461 31.1373 9.49289 31.6204C11.6704 31.9102 14.7674 31.6204 16.2675 30.9924C18.5902 30.0263 20.2113 27.6352 20.671 24.4954C20.792 23.5534 20.9129 18.3123 20.9129 12.8055V2.80638L21.784 2.00935L22.6308 1.18816H20.2113C17.9612 1.18816 17.0901 1.42968 18.2515 1.74367C19.3645 2.0335 19.4612 2.90299 19.4612 13.4335C19.4612 19.061 19.3403 23.9399 19.2193 24.8335C18.808 27.3212 17.7918 28.7945 15.832 29.8331C14.5497 30.5093 10.3155 30.4852 8.81543 29.7848C7.41212 29.1568 6.22656 27.9733 5.5733 26.5725C5.08939 25.4856 5.0652 25.0992 4.99261 14.1581L4.92003 2.83053L5.79105 2.00935L6.66207 1.18816H3.51672C1.55692 1.18816 0.347168 1.28477 0.347168 1.42968Z" fill="#FF2C2C"/>
<path d="M122.605 4.78703C121.492 5.12516 120.596 5.4633 120.596 5.53576C120.596 5.60822 120.935 5.84974 121.322 6.06711L122.048 6.47771V9.40017V12.2985H120.838C119.653 12.2985 119.629 12.3226 119.629 13.023C119.629 13.7235 119.653 13.7476 120.838 13.7476H122.048V19.1095C122.048 25.3891 122.314 28.4324 122.943 29.5192C124.032 31.3548 126.936 31.862 129.137 30.5819L130.274 29.9057V28.3599C130.274 26.7417 129.936 26.2586 129.67 27.4904C129.476 28.3841 127.807 29.9298 127.032 29.9298C125.242 29.9298 124.952 28.5048 124.952 19.9548V13.7476H127.613H130.274V13.023V12.2985H127.613H124.952V8.19254C124.952 5.9222 124.879 4.08661 124.782 4.11076C124.661 4.13491 123.693 4.42474 122.605 4.78703Z" fill="black"/>
<path d="M64.5366 5.24589C64.222 5.29419 63.7623 5.60817 63.4962 5.94631C62.1896 7.61284 63.7865 9.81072 65.8431 9.13445C66.7867 8.84462 67.1254 8.31326 67.1254 7.15394C67.1254 5.898 65.9399 5.02851 64.5366 5.24589Z" fill="black"/>
<path d="M110.701 5.87374C109.201 7.46781 110.87 9.95552 112.927 9.18264C114.354 8.62713 114.717 6.5017 113.507 5.65637C112.709 5.10086 111.33 5.19747 110.701 5.87374Z" fill="black"/>
<path d="M29.2118 12.3951C26.9375 13.1438 26.5262 13.4095 27.494 13.5544C28.5586 13.6993 28.6553 14.3756 28.6553 21.7663C28.6553 28.9154 28.5827 29.5917 27.6391 30.5819L27.131 31.1375H30.1312C33.0104 31.1375 33.1072 31.1133 32.6233 30.7027C31.6313 29.9057 31.5587 29.4709 31.5587 23.2879C31.5587 16.7425 31.6313 16.3802 33.0346 14.9794C34.7041 13.2887 37.3897 12.7815 39.277 13.7476C40.4383 14.3273 41.769 15.8489 42.2045 17.0565C42.5433 18.0951 42.8336 26.8625 42.5675 28.6256C42.4949 29.2294 42.1562 30.0023 41.8174 30.4129L41.1884 31.1375H44.0434H46.8742L46.3661 30.5819C45.4951 29.64 45.3499 28.6256 45.3499 23.1188C45.3499 17.0082 45.108 15.9455 43.2449 13.965C41.7448 12.3468 40.1964 11.743 37.6075 11.7188C35.4057 11.7188 34.0024 12.1536 32.3814 13.3853L31.5829 13.9891L31.5103 12.8298L31.4378 11.6705L29.2118 12.3951Z" fill="black"/>
<path d="M65.0688 12.4433C62.4316 13.3611 62.5768 13.2645 63.23 13.6268C63.5688 13.7959 63.9075 14.134 64.0043 14.3755C64.2946 15.1001 64.2462 29.0844 63.9559 29.8573C63.8349 30.2196 63.472 30.7268 63.1816 30.9442C62.6735 31.3548 62.7703 31.3789 65.6495 31.3789H68.6739L68.1174 30.8717C67.8271 30.606 67.4883 30.0988 67.3432 29.7607C67.2222 29.4467 67.1254 25.3166 67.1254 20.4861C67.1254 15.7281 67.0528 11.8153 66.9561 11.8395C66.8351 11.8395 66.0125 12.1052 65.0688 12.4433Z" fill="black"/>
<path d="M75.7873 12.4916C73.9242 13.1437 73.271 13.506 73.9484 13.506C74.142 13.506 74.5049 13.7234 74.7711 14.0132C75.2066 14.4721 75.2308 15.0276 75.3034 21.2107C75.4001 28.7946 75.3276 29.6399 74.5049 30.5336C74.1662 30.8717 73.9001 31.2098 73.9001 31.2823C73.9001 31.3306 75.2308 31.3789 76.8277 31.3789H79.7794L79.1262 30.7268C78.7874 30.3887 78.4003 29.809 78.3035 29.4709C78.2068 29.1327 78.1342 26.1137 78.1342 22.7806V16.7183L78.86 15.559C80.3117 13.192 83.1909 12.5399 85.4169 14.0374C87.4493 15.4382 87.5702 15.8488 87.6428 22.5632C87.6912 25.7514 87.6428 28.7221 87.5702 29.181C87.4735 29.6158 87.1589 30.2437 86.8202 30.5819C86.5057 30.8959 86.2395 31.2098 86.2395 31.2581C86.2395 31.3306 87.5461 31.3789 89.1429 31.3789C90.7398 31.3789 92.0463 31.3306 92.0463 31.2581C92.0463 31.1857 91.756 30.8476 91.3931 30.5336L90.7156 29.9781L90.643 23.8433C90.5946 19.8098 90.643 17.4187 90.8366 16.8149C91.1511 15.7764 92.5302 14.134 93.5222 13.6026C94.3691 13.1679 96.1837 13.1679 97.1999 13.6026C98.2403 14.0132 99.45 15.4382 99.7645 16.5734C99.9097 17.1048 100.031 20.0272 100.031 23.4086C100.031 28.8912 99.9823 29.3742 99.5468 30.0988C99.2806 30.5336 98.9661 30.8959 98.8209 30.8959C98.7 30.8959 98.579 30.9925 98.579 31.1374C98.579 31.2823 99.7162 31.3789 101.482 31.3789C103.249 31.3789 104.386 31.2823 104.386 31.1374C104.386 30.9925 104.289 30.8959 104.144 30.8959C104.023 30.8959 103.708 30.606 103.491 30.2437C103.103 29.6882 103.031 28.7704 102.91 23.2878C102.741 16.0662 102.595 15.3899 100.829 13.6268C99.45 12.2259 97.7806 11.7187 95.2885 11.8637C93.9819 11.9603 93.2803 12.1293 92.4576 12.6124C91.514 13.1679 90.1591 14.6653 89.772 15.5348C89.6994 15.6798 89.53 15.6073 89.3607 15.3416C88.7316 14.3272 87.3041 12.9505 86.3847 12.4916C85.7556 12.1776 84.7394 11.9361 83.6748 11.8637C82.1748 11.767 81.7634 11.8395 80.6505 12.3709C79.9246 12.6848 79.102 13.192 78.8358 13.4577C78.1826 14.0857 78.0132 13.9166 78.0132 12.7331C78.0132 12.2259 77.9406 11.8153 77.8438 11.8395C77.7229 11.8395 76.8035 12.1535 75.7873 12.4916Z" fill="black"/>
<path d="M112.225 12.4192C109.418 13.2645 109.515 13.2162 110.362 13.7234C110.894 14.0615 111.136 14.4238 111.233 15.1001C111.499 16.5975 111.427 28.5289 111.16 29.4226C111.039 29.8814 110.701 30.5094 110.386 30.8234L109.878 31.3789H112.854C115.636 31.3789 115.83 31.3548 115.322 30.9925C114.209 30.2196 114.185 30.0264 114.064 20.7276L113.943 11.8878L112.225 12.4192Z" fill="black"/>
<path d="M140.195 12.2018C136.904 13.0955 134.726 15.39 133.783 18.9887C133.13 21.5006 133.541 24.8578 134.751 26.9107C137.412 31.4514 143.969 32.8764 149.534 30.123L151.566 29.1328V27.4179V25.7273L150.889 26.8141C149.534 28.9154 146.437 30.3162 143.654 30.0747C140.025 29.7607 137.364 27.2247 136.42 23.2395L136.13 21.9595H144.114H152.123L151.977 20.3171C151.808 18.3366 151.058 16.2595 150.018 14.8828C148.082 12.3226 143.945 11.2116 140.195 12.2018ZM145.711 13.8925C147.55 14.8103 148.905 16.815 149.292 19.2544L149.461 20.2688H142.88H136.323V19.665C136.323 18.3849 137.339 16.3078 138.598 15.076C140.001 13.6993 140.896 13.3128 143.001 13.2887C144.114 13.2645 144.743 13.4095 145.711 13.8925Z" fill="black"/>
<path d="M168.551 42.5373C168.599 42.8512 168.745 43.0928 168.866 43.0928C169.011 43.0928 169.132 42.8512 169.18 42.5373C169.229 42.175 169.132 42.0059 168.866 42.0059C168.599 42.0059 168.503 42.175 168.551 42.5373Z" fill="black"/>
<path d="M160.349 44.4937C158.873 45.9912 158.389 46.9573 158.679 47.6818C158.825 48.0924 156.744 52.1501 156.381 52.1501C156.115 52.1501 156.091 52.3433 156.55 48.817C156.768 47.1988 156.865 45.7013 156.792 45.5081C156.72 45.2907 156.357 45.1458 155.945 45.1458C155.365 45.1458 154.905 45.484 153.477 47.0539C152.51 48.1166 151.614 48.9136 151.493 48.8412C151.372 48.7687 151.348 47.8751 151.445 46.8365C151.614 45.0492 151.59 44.9284 151.082 44.6628C150.647 44.4454 150.501 44.4454 150.356 44.6628C150.09 45.0734 149.848 48.2132 150.018 48.8895C150.114 49.3001 150.066 49.4933 149.848 49.4933C149.655 49.4933 149.195 50.1212 148.784 50.8941C148.397 51.6429 147.961 52.2467 147.816 52.2225C147.405 52.1259 147.405 50.5077 147.792 49.3001C147.985 48.6721 148.179 47.2954 148.227 46.2327C148.3 44.4212 148.276 44.3005 147.792 44.228C147.211 44.1556 145.856 45.6289 144.187 48.1649L143.219 49.614L143.146 48.5755C143.049 47.1505 142.396 47.1988 141.235 48.7445C140.727 49.4208 140.243 49.9522 140.146 49.9522C139.856 49.9763 139.928 48.8412 140.291 47.1263C140.606 45.7013 140.606 45.6047 140.146 45.3632C139.614 45.0734 139.323 45.2666 139.178 45.9912C139.106 46.4742 138.888 46.4742 92.8931 46.5225L46.6806 46.595L46.3177 45.7979C45.616 44.3246 43.753 44.3246 42.8094 45.7979L42.3255 46.5708L32.841 46.595C26.6713 46.595 23.3324 46.6916 23.3324 46.8365C23.3324 46.9814 26.6713 47.078 32.841 47.078L42.3255 47.1022L42.8094 47.8751C43.2207 48.5272 43.4627 48.6479 44.4305 48.7204C45.3257 48.7687 45.6402 48.6962 46.0515 48.2615C46.3419 47.9475 46.5596 47.5611 46.5596 47.392C46.5596 47.1263 54.8101 47.078 92.7479 47.078H138.96L138.815 48.7687C138.694 50.0971 138.767 50.556 139.081 51.0632C139.638 51.8844 140.243 51.5462 141.041 49.9763C141.38 49.3001 141.743 48.7687 141.864 48.7687C141.985 48.7687 142.154 49.2518 142.227 49.8556C142.348 50.5801 142.566 51.039 142.88 51.184C143.509 51.5221 143.727 51.353 144.09 50.2903C144.404 49.3242 145.832 46.4742 146.267 45.9429C147.09 44.9768 147.114 45.7979 146.413 50.7009C146.122 52.609 146.122 53.1162 146.388 53.7683C146.582 54.1789 146.824 54.6136 146.969 54.6861C147.453 55.0001 148.397 54.1064 148.566 53.1886C148.88 51.5704 150.356 49.1068 150.356 50.2179C150.356 50.3628 150.647 50.5801 150.985 50.7251C151.808 51.0149 152.655 50.5318 152.873 49.5899C153.115 48.6962 154.639 46.3534 155.002 46.3534C155.244 46.3534 155.292 47.0539 155.244 49.3242C155.171 51.9568 155.22 52.3674 155.631 52.8746C156.26 53.6475 156.937 53.2369 157.494 51.7395C158.147 49.928 159.067 48.4789 159.429 48.6238C159.623 48.6721 160.325 48.5272 161.051 48.2373C162.938 47.5128 163.639 47.4403 163.809 47.8992C164.099 48.6238 163.664 49.4208 162.647 50.1212C160.397 51.5946 159.599 52.3916 159.163 53.4784C158.849 54.3479 158.8 54.7102 159.018 55.1691C159.26 55.6763 159.381 55.7246 160.059 55.5314C160.47 55.4107 161.075 55.145 161.365 54.9518C162.139 54.4446 163.422 52.295 163.18 51.9085C163.035 51.6912 162.793 51.9568 162.381 52.778C161.655 54.203 160.688 55.1691 160.179 54.9759C159.26 54.6136 159.841 53.4784 161.752 51.8844C162.938 50.8941 163.01 50.87 163.325 51.3047C163.688 51.7878 164.027 51.6429 164.027 50.9907C164.027 50.4594 165.986 49.0102 166.712 49.0102C167.196 49.0102 167.293 49.131 167.293 49.6623C167.293 50.4835 168.043 51.7878 168.745 52.1501C169.349 52.464 170.22 52.0293 170.68 51.184C171.043 50.5077 171.261 50.5801 171.624 51.5462C171.987 52.5848 172.809 52.8746 173.777 52.2708C174.382 51.8844 177.697 48.5996 177.697 48.3823C177.697 47.9958 176.826 48.5272 175.277 49.8556C174.285 50.7251 173.317 51.4013 173.124 51.3772C172.93 51.3289 172.664 50.9424 172.543 50.4835C172.229 49.2518 172.761 47.4162 173.777 46.3293C174.745 45.2424 175.035 45.17 175.035 45.9912C175.035 46.7882 175.471 46.764 175.761 45.967C176.124 45.0251 176.076 44.9043 175.156 44.5179C174.334 44.1797 174.237 44.2039 173.656 44.6628C172.713 45.4115 171.987 46.595 171.527 48.1166C171.14 49.4933 170.293 50.9666 169.809 51.1115C169.374 51.2564 169.204 50.0971 169.374 48.2132C169.519 46.3293 169.253 45.2424 168.599 44.9768C168.019 44.7594 167.583 45.4598 167.39 46.9814C167.317 47.706 167.123 48.2857 166.954 48.2857C166.809 48.2857 166.47 48.3581 166.18 48.4306C165.793 48.5272 165.551 48.334 165.043 47.5852C164.486 46.7399 164.268 46.595 163.518 46.595C163.059 46.595 162.188 46.7157 161.583 46.8607C160.978 47.0056 160.446 47.078 160.349 47.0056C160.131 46.764 161.196 45.2424 162.236 44.3246C163.228 43.4068 163.276 42.9721 162.381 42.9721C162.043 42.9721 161.292 43.5518 160.349 44.4937Z" fill="black"/>
</svg>
